<svg id="more-close" height="48" viewBox="0 0 24 24" width="48" xmlns="http://www.w3.org/2000/svg">
    <g id="close" style="display:none">
        <path d="M19 6.41L17.59 5 12 10.59 6.41 5 5 6.41 10.59 12 5 17.59 6.41 19 12 13.41 17.59 19 19 17.59 13.41 12z"/>
        <path d="M0 0h24v24H0z" fill="none"/>
    </g>

    <g id="more" style="display:none">
        <path d="M12,16A2,2 0 0,1 14,18A2,2 0 0,1 12,20A2,2 0 0,1 10,18A2,2 0 0,1 12,16M12,10A2,2 0 0,1 14,12A2,2 0 0,1 12,14A2,2 0 0,1 10,12A2,2 0 0,1 12,10M12,4A2,2 0 0,1 14,6A2,2 0 0,1 12,8A2,2 0 0,1 10,6A2,2 0 0,1 12,4Z" />
        <path d="M0 0h24v24H0z" fill="none"/>
    </g>
</svg>
